<svg width="116" height="81" viewBox="0 0 116 81" fill="none" xmlns="http://www.w3.org/2000/svg">
<path fill-rule="evenodd" clip-rule="evenodd" d="M49.5078 4.33645C48.9328 4.33645 48.3813 4.56489 47.9747 4.97151C47.5681 5.37813 47.3396 5.92962 47.3396 6.50467V26.0187C47.3396 26.5937 47.5681 27.1452 47.9747 27.5519C48.3813 27.9585 48.9328 28.1869 49.5078 28.1869H71.1901C72.3876 28.1869 73.3583 29.1577 73.3583 30.3551C73.3583 31.5526 72.3876 32.5234 71.1901 32.5234H49.5078C47.7827 32.5234 46.1282 31.838 44.9083 30.6182C43.6885 29.3983 43.0032 27.7438 43.0032 26.0187V6.50467C43.0032 4.77953 43.6885 3.12504 44.9083 1.90518C46.1282 0.685313 47.7827 0 49.5078 0H71.1901C72.3876 0 73.3583 0.970747 73.3583 2.16822C73.3583 3.3657 72.3876 4.33645 71.1901 4.33645H49.5078Z" fill="#9B51E0"/>
<path fill-rule="evenodd" clip-rule="evenodd" d="M56.0125 39.028C56.0125 37.8305 56.9832 36.8598 58.1807 36.8598H71.19C72.3875 36.8598 73.3582 37.8305 73.3582 39.028C73.3582 40.2255 72.3875 41.1963 71.19 41.1963H58.1807C56.9832 41.1963 56.0125 40.2255 56.0125 39.028Z" fill="#9B51E0"/>
<path fill-rule="evenodd" clip-rule="evenodd" d="M64.6853 28.1869C65.8828 28.1869 66.8535 29.1577 66.8535 30.3551V39.028C66.8535 40.2255 65.8828 41.1963 64.6853 41.1963C63.4878 41.1963 62.5171 40.2255 62.5171 39.028V30.3551C62.5171 29.1577 63.4878 28.1869 64.6853 28.1869Z" fill="#9B51E0"/>
<path d="M69.3832 26.3801C71.1794 26.3801 72.6355 24.9239 72.6355 23.1277C72.6355 21.3315 71.1794 19.8754 69.3832 19.8754C67.587 19.8754 66.1309 21.3315 66.1309 23.1277C66.1309 24.9239 67.587 26.3801 69.3832 26.3801Z" fill="#56CCF2"/>
<path d="M9.51531 54.9254V74.6023H6.14022V54.9254H9.51531ZM15.7097 54.9254V57.6283H0V54.9254H15.7097Z" fill="#56CCF2"/>
<path d="M23.1512 74.8726C22.0668 74.8726 21.0864 74.6969 20.2099 74.3455C19.3424 73.9852 18.6014 73.4851 17.9869 72.8455C17.3815 72.2058 16.9161 71.4535 16.5908 70.5885C16.2655 69.7236 16.1028 68.7911 16.1028 67.7911V67.2505C16.1028 66.1063 16.27 65.0702 16.6043 64.1422C16.9387 63.2142 17.4041 62.4214 18.0005 61.7637C18.5969 61.097 19.3017 60.5879 20.115 60.2365C20.9283 59.8852 21.8093 59.7095 22.7581 59.7095C23.8063 59.7095 24.7235 59.8852 25.5097 60.2365C26.2959 60.5879 26.9465 61.0834 27.4616 61.7231C27.9857 62.3538 28.3742 63.1061 28.6272 63.98C28.8893 64.8539 29.0203 65.818 29.0203 66.8721V68.2641H17.6887V65.9261H25.7943V65.6693C25.7763 65.0837 25.6588 64.5341 25.4419 64.0206C25.2341 63.507 24.9133 63.0926 24.4796 62.7772C24.0458 62.4619 23.4675 62.3042 22.7446 62.3042C22.2024 62.3042 21.7189 62.4214 21.2942 62.6556C20.8786 62.8809 20.5307 63.2097 20.2505 63.6422C19.9704 64.0746 19.7535 64.5972 19.5999 65.2098C19.4553 65.8135 19.383 66.4937 19.383 67.2505V67.7911C19.383 68.4308 19.4689 69.0254 19.6406 69.575C19.8213 70.1155 20.0834 70.5885 20.4267 70.994C20.7701 71.3994 21.1858 71.7193 21.6738 71.9535C22.1617 72.1787 22.7175 72.2914 23.341 72.2914C24.1271 72.2914 24.8275 72.1337 25.4419 71.8184C26.0564 71.503 26.5895 71.057 27.0414 70.4804L28.7628 72.1427C28.4465 72.6022 28.0354 73.0437 27.5293 73.4671C27.0233 73.8816 26.4043 74.2194 25.6724 74.4807C24.9494 74.742 24.1091 74.8726 23.1512 74.8726Z" fill="#56CCF2"/>
<path d="M37.5597 72.2778C38.0929 72.2778 38.5718 72.1742 38.9965 71.967C39.4302 71.7508 39.7781 71.4535 40.0402 71.0751C40.3113 70.6967 40.4604 70.2597 40.4875 69.7642H43.5644C43.5463 70.7102 43.2662 71.5706 42.724 72.3454C42.1818 73.1202 41.4634 73.7374 40.5688 74.1969C39.6742 74.6474 38.6847 74.8726 37.6004 74.8726C36.4799 74.8726 35.5039 74.6834 34.6726 74.305C33.8412 73.9176 33.15 73.386 32.5987 72.7103C32.0475 72.0346 31.6318 71.2553 31.3517 70.3723C31.0806 69.4894 30.9451 68.5434 30.9451 67.5343V67.0613C30.9451 66.0522 31.0806 65.1062 31.3517 64.2233C31.6318 63.3313 32.0475 62.5475 32.5987 61.8718C33.15 61.1961 33.8412 60.669 34.6726 60.2906C35.5039 59.9032 36.4753 59.7095 37.5868 59.7095C38.7615 59.7095 39.7917 59.9437 40.6773 60.4122C41.5628 60.8717 42.2586 61.5159 42.7647 62.3448C43.2797 63.1647 43.5463 64.1197 43.5644 65.2098H40.4875C40.4604 64.6693 40.3248 64.1827 40.0809 63.7503C39.8459 63.3088 39.5116 62.9574 39.0778 62.6962C38.6531 62.4349 38.1426 62.3042 37.5462 62.3042C36.8865 62.3042 36.3398 62.4394 35.9061 62.7097C35.4723 62.9709 35.1334 63.3313 34.8895 63.7908C34.6455 64.2413 34.4693 64.7503 34.3608 65.3179C34.2614 65.8765 34.2117 66.4577 34.2117 67.0613V67.5343C34.2117 68.1379 34.2614 68.7236 34.3608 69.2912C34.4602 69.8588 34.6319 70.3678 34.8759 70.8183C35.1289 71.2598 35.4723 71.6156 35.9061 71.8859C36.3398 72.1472 36.891 72.2778 37.5597 72.2778Z" fill="#56CCF2"/>
<path d="M49.298 53.8442V74.6023H46.0449V53.8442H49.298ZM48.7287 66.7505L47.6714 66.737C47.6805 65.7279 47.8205 64.7954 48.0916 63.9395C48.3717 63.0836 48.7603 62.3403 49.2573 61.7096C49.7633 61.0699 50.3688 60.5789 51.0736 60.2365C51.7785 59.8852 52.5601 59.7095 53.4186 59.7095C54.1415 59.7095 54.7921 59.8086 55.3704 60.0068C55.9578 60.205 56.4638 60.5248 56.8885 60.9663C57.3132 61.3988 57.634 61.9664 57.8509 62.6691C58.0768 63.3629 58.1898 64.2098 58.1898 65.2098V74.6023H54.9096V65.1828C54.9096 64.4801 54.8056 63.9215 54.5978 63.507C54.399 63.0926 54.1053 62.7953 53.7168 62.6151C53.3282 62.4259 52.8538 62.3313 52.2935 62.3313C51.7062 62.3313 51.1866 62.4484 50.7347 62.6826C50.292 62.9169 49.9215 63.2367 49.6233 63.6422C49.3251 64.0476 49.0992 64.5161 48.9455 65.0477C48.801 65.5792 48.7287 66.1468 48.7287 66.7505Z" fill="#56CCF2"/>
<path d="M74.8619 63.1421V65.8315H64.3842V63.1421H74.8619ZM65.2246 54.9254V74.6023H61.8224V54.9254H65.2246ZM77.4779 54.9254V74.6023H74.0893V54.9254H77.4779Z" fill="#56CCF2"/>
<path d="M87.671 74.8726C86.5866 74.8726 85.6061 74.6969 84.7296 74.3455C83.8621 73.9852 83.1211 73.4851 82.5067 72.8455C81.9012 72.2058 81.4358 71.4535 81.1105 70.5885C80.7852 69.7236 80.6226 68.7911 80.6226 67.7911V67.2505C80.6226 66.1063 80.7897 65.0702 81.1241 64.1422C81.4584 63.2142 81.9238 62.4214 82.5202 61.7637C83.1166 61.097 83.8214 60.5879 84.6347 60.2365C85.448 59.8852 86.329 59.7095 87.2779 59.7095C88.3261 59.7095 89.2433 59.8852 90.0294 60.2365C90.8156 60.5879 91.4662 61.0834 91.9813 61.7231C92.5054 62.3538 92.894 63.1061 93.147 63.98C93.4091 64.8539 93.5401 65.818 93.5401 66.8721V68.2641H82.2085V65.9261H90.3141V65.6693C90.296 65.0837 90.1785 64.5341 89.9617 64.0206C89.7538 63.507 89.433 63.0926 88.9993 62.7772C88.5656 62.4619 87.9872 62.3042 87.2643 62.3042C86.7221 62.3042 86.2387 62.4214 85.814 62.6556C85.3983 62.8809 85.0504 63.2097 84.7703 63.6422C84.4901 64.0746 84.2733 64.5972 84.1197 65.2098C83.9751 65.8135 83.9028 66.4937 83.9028 67.2505V67.7911C83.9028 68.4308 83.9886 69.0254 84.1603 69.575C84.341 70.1155 84.6031 70.5885 84.9465 70.994C85.2899 71.3994 85.7055 71.7193 86.1935 71.9535C86.6815 72.1787 87.2372 72.2914 87.8607 72.2914C88.6469 72.2914 89.3472 72.1337 89.9617 71.8184C90.5761 71.503 91.1093 71.057 91.5611 70.4804L93.2825 72.1427C92.9663 72.6022 92.5551 73.0437 92.0491 73.4671C91.543 73.8816 90.924 74.2194 90.1921 74.4807C89.4692 74.742 88.6288 74.8726 87.671 74.8726Z" fill="#56CCF2"/>
<path d="M99.5854 53.8442V74.6023H96.3052V53.8442H99.5854Z" fill="#56CCF2"/>
<path d="M106.444 62.7908V80.2243H103.177V59.9798H106.186L106.444 62.7908ZM116 67.1559V67.4397C116 68.5028 115.873 69.4894 115.62 70.3993C115.376 71.3003 115.011 72.0886 114.523 72.7644C114.044 73.4311 113.452 73.9491 112.747 74.3185C112.042 74.6879 111.229 74.8726 110.307 74.8726C109.394 74.8726 108.595 74.7059 107.908 74.3726C107.23 74.0302 106.656 73.5482 106.186 72.9265C105.717 72.3049 105.337 71.5751 105.048 70.7372C104.768 69.8903 104.569 68.9623 104.452 67.9532V66.8586C104.569 65.7864 104.768 64.8134 105.048 63.9395C105.337 63.0655 105.717 62.3132 106.186 61.6826C106.656 61.0519 107.23 60.5654 107.908 60.223C108.586 59.8807 109.376 59.7095 110.28 59.7095C111.202 59.7095 112.019 59.8897 112.733 60.2501C113.447 60.6014 114.048 61.106 114.536 61.7637C115.024 62.4124 115.39 63.1962 115.634 64.1152C115.878 65.0251 116 66.0387 116 67.1559ZM112.733 67.4397V67.1559C112.733 66.4802 112.67 65.854 112.544 65.2774C112.417 64.6918 112.218 64.1782 111.947 63.7368C111.676 63.2953 111.328 62.9529 110.903 62.7097C110.488 62.4574 109.986 62.3313 109.399 62.3313C108.821 62.3313 108.324 62.4304 107.908 62.6286C107.492 62.8178 107.144 63.0836 106.864 63.4259C106.584 63.7683 106.367 64.1692 106.214 64.6287C106.06 65.0792 105.952 65.5702 105.888 66.1018V68.7236C105.997 69.3723 106.182 69.9669 106.444 70.5075C106.706 71.048 107.077 71.4805 107.556 71.8048C108.043 72.1202 108.667 72.2778 109.426 72.2778C110.013 72.2778 110.515 72.1517 110.931 71.8994C111.346 71.6472 111.685 71.3003 111.947 70.8588C112.218 70.4084 112.417 69.8903 112.544 69.3047C112.67 68.7191 112.733 68.0974 112.733 67.4397Z" fill="#56CCF2"/>
</svg>
