<svg width="116" height="82" viewBox="0 0 116 82" fill="none" xmlns="http://www.w3.org/2000/svg">
<path d="M58.6894 35.5909H44.8377C44.671 35.5931 44.5054 35.5618 44.3509 35.4988C44.1964 35.4359 44.0561 35.3425 43.9382 35.2242C43.8202 35.106 43.7271 34.9652 43.6643 34.8103C43.6015 34.6554 43.5703 34.4894 43.5725 34.3222V20.4318C43.5725 16.4114 45.1652 12.5556 48.0001 9.71272C50.8351 6.86983 54.6802 5.27272 58.6894 5.27272V5.27272C60.6746 5.27272 62.6404 5.66482 64.4744 6.42664C66.3085 7.18845 67.975 8.30506 69.3787 9.71272C70.7825 11.1204 71.896 12.7915 72.6557 14.6307C73.4154 16.4699 73.8064 18.4411 73.8064 20.4318V20.4318C73.8064 22.4225 73.4154 24.3938 72.6557 26.2329C71.896 28.0721 70.7825 29.7433 69.3787 31.1509C67.975 32.5586 66.3085 33.6752 64.4744 34.437C62.6404 35.1988 60.6746 35.5909 58.6894 35.5909V35.5909Z" stroke="#00B37E" stroke-width="2" stroke-linecap="round" stroke-linejoin="round"/>
<path d="M53.4314 18.4545H63.2903" stroke="#996DFF" stroke-width="2" stroke-linecap="round" stroke-linejoin="round"/>
<path d="M53.4314 23.7273H63.2903" stroke="#996DFF" stroke-width="2" stroke-linecap="round" stroke-linejoin="round"/>
<path d="M2.81157 54.4713V75.682H0V54.4713H2.81157Z" fill="#996DFF"/>
<path d="M10.212 63.2848V75.682H7.51695V59.9197H10.0663L10.212 63.2848ZM9.57101 67.2035L8.44929 67.1598C8.459 66.0818 8.61925 65.0864 8.93003 64.1735C9.2408 63.2508 9.67784 62.4496 10.2411 61.7698C10.8044 61.09 11.4745 60.5655 12.2515 60.1965C13.0381 59.8177 13.9073 59.6283 14.8591 59.6283C15.636 59.6283 16.3353 59.7352 16.9569 59.9488C17.5784 60.1528 18.1077 60.483 18.5447 60.9394C18.9915 61.3959 19.3314 61.9883 19.5645 62.7167C19.7976 63.4354 19.9141 64.3143 19.9141 65.3534V75.682H17.2045V65.3243C17.2045 64.4988 17.0831 63.8384 16.8403 63.3431C16.5975 62.8381 16.243 62.4739 15.7769 62.2505C15.3107 62.0174 14.7377 61.9009 14.0579 61.9009C13.3878 61.9009 12.7759 62.0417 12.2223 62.3234C11.6785 62.605 11.2074 62.9935 10.8093 63.4888C10.4208 63.9841 10.1149 64.5522 9.8915 65.1932C9.67784 65.8245 9.57101 66.4946 9.57101 67.2035Z" fill="#996DFF"/>
<path d="M28.0283 75.682H25.3333V58.259C25.3333 57.1227 25.5372 56.1661 25.9451 55.3891C26.3628 54.6025 26.96 54.01 27.737 53.6118C28.5139 53.2039 29.4365 53 30.5048 53C30.8156 53 31.1264 53.0194 31.4372 53.0583C31.7577 53.0971 32.0685 53.1554 32.3695 53.2331L32.2238 55.4328C32.0199 55.3843 31.7868 55.3503 31.5246 55.3308C31.2721 55.3114 31.0196 55.3017 30.7671 55.3017C30.1941 55.3017 29.6988 55.4182 29.2812 55.6513C28.8733 55.8747 28.5625 56.2049 28.3488 56.6419C28.1352 57.079 28.0283 57.618 28.0283 58.259V75.682ZM31.3789 59.9197V61.9883H22.8422V59.9197H31.3789Z" fill="#996DFF"/>
<path d="M37.0749 62.3962V75.682H34.3799V59.9197H37.0021L37.0749 62.3962ZM41.9988 59.8323L41.9842 62.3379C41.7609 62.2894 41.5472 62.2602 41.3432 62.2505C41.149 62.2311 40.9256 62.2214 40.6731 62.2214C40.0516 62.2214 39.5029 62.3185 39.027 62.5127C38.5511 62.707 38.1481 62.9789 37.8179 63.3285C37.4877 63.6782 37.2254 64.0958 37.0312 64.5814C36.8467 65.0572 36.7253 65.5817 36.667 66.1547L35.9095 66.5917C35.9095 65.6399 36.0017 64.7465 36.1863 63.9112C36.3805 63.076 36.6767 62.3379 37.0749 61.6969C37.4731 61.0462 37.9781 60.5412 38.5899 60.1819C39.2115 59.8128 39.9496 59.6283 40.8042 59.6283C40.9985 59.6283 41.2219 59.6526 41.4744 59.7012C41.7269 59.74 41.9017 59.7837 41.9988 59.8323Z" fill="#996DFF"/>
<path d="M53.2014 72.9869V64.8727C53.2014 64.2512 53.0751 63.7121 52.8226 63.2557C52.5798 62.7895 52.2108 62.4302 51.7155 62.1777C51.2202 61.9252 50.6083 61.7989 49.8799 61.7989C49.2001 61.7989 48.6028 61.9155 48.0881 62.1485C47.5831 62.3816 47.1849 62.6875 46.8936 63.0663C46.6119 63.4451 46.4711 63.853 46.4711 64.29H43.7761C43.7761 63.7267 43.9217 63.1683 44.2131 62.6147C44.5044 62.0611 44.9221 61.561 45.4659 61.1142C46.0195 60.6578 46.6799 60.2984 47.4471 60.0362C48.2241 59.7643 49.0884 59.6283 50.0402 59.6283C51.1862 59.6283 52.1962 59.8226 53.0703 60.211C53.9541 60.5995 54.6436 61.1871 55.1389 61.9737C55.6439 62.7507 55.8964 63.7267 55.8964 64.9018V72.244C55.8964 72.7684 55.9401 73.3269 56.0275 73.9193C56.1246 74.5117 56.2655 75.0216 56.45 75.4489V75.682H53.6384C53.5025 75.3712 53.3956 74.9584 53.3179 74.4437C53.2402 73.9193 53.2014 73.4337 53.2014 72.9869ZM53.6676 66.1255L53.6967 68.0193H50.9725C50.2053 68.0193 49.5206 68.0825 48.9185 68.2087C48.3163 68.3253 47.8113 68.5049 47.4034 68.7477C46.9955 68.9905 46.6848 69.2964 46.4711 69.6655C46.2574 70.0248 46.1506 70.4473 46.1506 70.9329C46.1506 71.4282 46.2623 71.8798 46.4857 72.2877C46.709 72.6956 47.0441 73.0209 47.4908 73.2637C47.9473 73.4968 48.5057 73.6134 49.1661 73.6134C49.9916 73.6134 50.72 73.4385 51.3513 73.0889C51.9826 72.7393 52.4827 72.312 52.8518 71.807C53.2305 71.3019 53.4345 70.8115 53.4636 70.3356L54.6145 71.6321C54.5465 72.04 54.362 72.4916 54.0609 72.9869C53.7598 73.4822 53.3568 73.9581 52.8518 74.4146C52.3565 74.8613 51.764 75.2352 51.0745 75.5363C50.3947 75.8276 49.6274 75.9733 48.7728 75.9733C47.7045 75.9733 46.7673 75.7645 45.9612 75.3469C45.1649 74.9293 44.5433 74.3709 44.0966 73.6716C43.6595 72.9627 43.441 72.1711 43.441 71.2971C43.441 70.4522 43.6061 69.7092 43.9363 69.0682C44.2665 68.4175 44.7424 67.8785 45.3639 67.4512C45.9855 67.0142 46.7333 66.684 47.6074 66.4606C48.4814 66.2372 49.4575 66.1255 50.5355 66.1255H53.6676Z" fill="#996DFF"/>
<path d="M72.5735 63.5907V65.8779H61.0941V63.5907H72.5735ZM61.5312 54.4713V75.682H58.7196V54.4713H61.5312ZM75.0209 54.4713V75.682H72.2239V54.4713H75.0209Z" fill="#00B37E"/>
<path d="M86.1507 75.9733C85.0532 75.9733 84.0578 75.7888 83.1643 75.4198C82.2805 75.041 81.5181 74.5117 80.8771 73.8319C80.2459 73.152 79.7603 72.346 79.4204 71.4136C79.0805 70.4813 78.9105 69.4615 78.9105 68.3544V67.7426C78.9105 66.4606 79.0999 65.3195 79.4786 64.3191C79.8574 63.3091 80.3721 62.4545 81.0228 61.7552C81.6735 61.056 82.4116 60.5267 83.2371 60.1673C84.0626 59.808 84.9173 59.6283 85.801 59.6283C86.9276 59.6283 87.8988 59.8226 88.7146 60.211C89.5401 60.5995 90.2151 61.1434 90.7395 61.8426C91.2639 62.5322 91.6524 63.348 91.9049 64.29C92.1574 65.2223 92.2837 66.2421 92.2837 67.3492V68.5583H80.5129V66.3586H89.5886V66.1547C89.5498 65.4554 89.4041 64.7756 89.1516 64.1152C88.9088 63.4548 88.5203 62.9109 87.9862 62.4836C87.452 62.0563 86.7237 61.8426 85.801 61.8426C85.1892 61.8426 84.6259 61.9737 84.1112 62.2359C83.5964 62.4885 83.1546 62.8672 82.7855 63.3722C82.4165 63.8772 82.13 64.4939 81.926 65.2223C81.7221 65.9507 81.6201 66.7908 81.6201 67.7426V68.3544C81.6201 69.1022 81.7221 69.8063 81.926 70.4667C82.1397 71.1174 82.4456 71.6904 82.8438 72.1857C83.2517 72.681 83.7421 73.0695 84.3151 73.3511C84.8978 73.6328 85.5582 73.7736 86.2963 73.7736C87.2481 73.7736 88.0542 73.5794 88.7146 73.1909C89.375 72.8024 89.9528 72.2828 90.4481 71.6321L92.0797 72.9287C91.7398 73.4434 91.3076 73.9338 90.7832 74.4C90.2588 74.8662 89.6129 75.2449 88.8457 75.5363C88.0882 75.8277 87.1898 75.9733 86.1507 75.9733Z" fill="#00B37E"/>
<path d="M98.3584 53.3059V75.682H95.6488V53.3059H98.3584Z" fill="#00B37E"/>
<path d="M105.38 62.9498V81.7422H102.67V59.9197H105.147L105.38 62.9498ZM116 67.6697V67.9756C116 69.1216 115.864 70.1851 115.592 71.166C115.32 72.1372 114.922 72.9821 114.398 73.7008C113.883 74.4194 113.247 74.9779 112.489 75.3761C111.732 75.7742 110.862 75.9733 109.882 75.9733C108.881 75.9733 107.997 75.8082 107.23 75.478C106.463 75.1478 105.812 74.6671 105.278 74.0358C104.744 73.4045 104.317 72.647 103.996 71.7633C103.685 70.8795 103.472 69.884 103.355 68.7769V67.1453C103.472 65.9799 103.69 64.9358 104.011 64.0132C104.331 63.0906 104.754 62.3039 105.278 61.6532C105.812 60.9928 106.458 60.4927 107.216 60.1528C107.973 59.8031 108.847 59.6283 109.838 59.6283C110.828 59.6283 111.707 59.8226 112.475 60.211C113.242 60.5898 113.888 61.1337 114.412 61.8426C114.937 62.5516 115.33 63.4014 115.592 64.392C115.864 65.3729 116 66.4654 116 67.6697ZM113.29 67.9756V67.6697C113.29 66.8831 113.208 66.145 113.043 65.4554C112.878 64.7562 112.62 64.1443 112.271 63.6199C111.931 63.0857 111.494 62.6681 110.96 62.3671C110.425 62.0563 109.789 61.9009 109.051 61.9009C108.371 61.9009 107.779 62.0174 107.274 62.2505C106.779 62.4836 106.356 62.7992 106.006 63.1974C105.657 63.5859 105.37 64.0326 105.147 64.5377C104.933 65.033 104.773 65.5477 104.666 66.0818V69.8549C104.86 70.5347 105.132 71.1757 105.482 71.7778C105.832 72.3702 106.298 72.851 106.881 73.22C107.463 73.5794 108.197 73.759 109.08 73.759C109.809 73.759 110.435 73.6085 110.96 73.3074C111.494 72.9967 111.931 72.5742 112.271 72.04C112.62 71.5059 112.878 70.894 113.043 70.2045C113.208 69.5053 113.29 68.7623 113.29 67.9756Z" fill="#00B37E"/>
</svg>
