<svg width="122" height="36" viewBox="0 0 122 36" fill="none" xmlns="http://www.w3.org/2000/svg">
<path fill-rule="evenodd" clip-rule="evenodd" d="M4.92857 3.33333C4.49286 3.33333 4.07499 3.50893 3.7669 3.82149C3.4588 4.13405 3.28571 4.55797 3.28571 5V20C3.28571 20.442 3.4588 20.8659 3.7669 21.1785C4.07499 21.4911 4.49286 21.6667 4.92857 21.6667H21.3571C22.2645 21.6667 23 22.4129 23 23.3333C23 24.2538 22.2645 25 21.3571 25H4.92857C3.62143 25 2.36783 24.4732 1.44354 23.5355C0.519259 22.5979 0 21.3261 0 20V5C0 3.67392 0.519259 2.40215 1.44354 1.46447C2.36783 0.526785 3.62143 0 4.92857 0H21.3571C22.2645 0 23 0.746192 23 1.66667C23 2.58714 22.2645 3.33333 21.3571 3.33333H4.92857Z" fill="#9B51E0"/>
<path fill-rule="evenodd" clip-rule="evenodd" d="M10 29.5C10 28.6716 10.7275 28 11.625 28H21.375C22.2725 28 23 28.6716 23 29.5C23 30.3284 22.2725 31 21.375 31H11.625C10.7275 31 10 30.3284 10 29.5Z" fill="#9B51E0"/>
<path fill-rule="evenodd" clip-rule="evenodd" d="M16.5 21C17.3284 21 18 21.7462 18 22.6667V29.3333C18 30.2538 17.3284 31 16.5 31C15.6716 31 15 30.2538 15 29.3333V22.6667C15 21.7462 15.6716 21 16.5 21Z" fill="#9B51E0"/>
<path d="M20 20C21.1046 20 22 18.8807 22 17.5C22 16.1193 21.1046 15 20 15C18.8954 15 18 16.1193 18 17.5C18 18.8807 18.8954 20 20 20Z" fill="#56CCF2"/>
<path d="M41.2185 15.8607V31.5246H38.6581V15.8607H41.2185ZM45.9177 15.8607V18.0123H34V15.8607H45.9177Z" fill="#56CCF2"/>
<path d="M51.563 31.7398C50.7404 31.7398 49.9966 31.5999 49.3316 31.3202C48.6735 31.0333 48.1114 30.6352 47.6452 30.126C47.1859 29.6168 46.8329 29.0179 46.5861 28.3294C46.3393 27.6409 46.2159 26.8986 46.2159 26.1025V25.6721C46.2159 24.7613 46.3428 23.9365 46.5964 23.1977C46.85 22.459 47.2031 21.8279 47.6555 21.3043C48.108 20.7736 48.6427 20.3683 49.2596 20.0886C49.8766 19.8089 50.545 19.6691 51.2648 19.6691C52.06 19.6691 52.7558 19.8089 53.3522 20.0886C53.9486 20.3683 54.4422 20.7628 54.8329 21.272C55.2305 21.7741 55.5253 22.373 55.7172 23.0686C55.916 23.7643 56.0154 24.5318 56.0154 25.3709V26.479H47.419V24.6178H53.5681V24.4134C53.5544 23.9472 53.4653 23.5097 53.3008 23.1009C53.1431 22.6921 52.8997 22.3622 52.5707 22.1112C52.2416 21.8601 51.8029 21.7346 51.2545 21.7346C50.8432 21.7346 50.4764 21.8279 50.1542 22.0143C49.8389 22.1936 49.575 22.4554 49.3625 22.7997C49.15 23.144 48.9854 23.5599 48.8689 24.0476C48.7592 24.5282 48.7044 25.0697 48.7044 25.6721V26.1025C48.7044 26.6117 48.7695 27.085 48.8997 27.5225C49.0368 27.9529 49.2356 28.3294 49.4961 28.6522C49.7566 28.9749 50.072 29.2295 50.4422 29.416C50.8123 29.5953 51.2339 29.6849 51.7069 29.6849C52.3033 29.6849 52.8346 29.5594 53.3008 29.3084C53.7669 29.0574 54.1714 28.7024 54.5141 28.2433L55.8201 29.5666C55.5801 29.9324 55.2682 30.2838 54.8843 30.6209C54.5004 30.9508 54.0308 31.2198 53.4756 31.4278C52.9272 31.6358 52.2896 31.7398 51.563 31.7398Z" fill="#56CCF2"/>
<path d="M62.4936 29.6742C62.898 29.6742 63.2614 29.5917 63.5835 29.4267C63.9126 29.2546 64.1765 29.0179 64.3753 28.7167C64.581 28.4155 64.6941 28.0676 64.7147 27.6732H67.0488C67.0351 28.4262 66.8226 29.1112 66.4113 29.728C66 30.3448 65.455 30.8361 64.7764 31.2018C64.0977 31.5604 63.347 31.7398 62.5244 31.7398C61.6744 31.7398 60.934 31.5891 60.3033 31.2879C59.6727 30.9795 59.1482 30.5564 58.7301 30.0184C58.3119 29.4805 57.9966 28.8601 57.7841 28.1573C57.5784 27.4544 57.4756 26.7013 57.4756 25.8981V25.5215C57.4756 24.7182 57.5784 23.9652 57.7841 23.2623C57.9966 22.5523 58.3119 21.9283 58.7301 21.3904C59.1482 20.8525 59.6727 20.4329 60.3033 20.1317C60.934 19.8233 61.671 19.6691 62.5141 19.6691C63.4053 19.6691 64.1868 19.8555 64.8586 20.2285C65.5304 20.5943 66.0583 21.1071 66.4422 21.7669C66.8329 22.4196 67.0351 23.1798 67.0488 24.0476H64.7147C64.6941 23.6173 64.5913 23.23 64.4062 22.8858C64.2279 22.5343 63.9743 22.2546 63.6452 22.0466C63.3231 21.8386 62.9357 21.7346 62.4833 21.7346C61.9829 21.7346 61.5681 21.8422 61.2391 22.0574C60.91 22.2654 60.653 22.5523 60.4679 22.918C60.2828 23.2766 60.1491 23.6819 60.0668 24.1337C59.9914 24.5784 59.9537 25.041 59.9537 25.5215V25.8981C59.9537 26.3786 59.9914 26.8448 60.0668 27.2966C60.1422 27.7485 60.2725 28.1537 60.4576 28.5123C60.6495 28.8637 60.91 29.147 61.2391 29.3622C61.5681 29.5702 61.9863 29.6742 62.4936 29.6742Z" fill="#56CCF2"/>
<path d="M71.3985 15V31.5246H68.9306V15H71.3985ZM70.9666 25.2741L70.1645 25.2633C70.1714 24.46 70.2776 23.7177 70.4833 23.0364C70.6958 22.355 70.9906 21.7633 71.3676 21.2613C71.7515 20.752 72.2108 20.3612 72.7455 20.0886C73.2802 19.8089 73.8732 19.6691 74.5244 19.6691C75.0728 19.6691 75.5664 19.748 76.0051 19.9057C76.4507 20.0635 76.8346 20.3181 77.1568 20.6696C77.479 21.0138 77.7224 21.4657 77.8869 22.0251C78.0583 22.5774 78.144 23.2515 78.144 24.0476V31.5246H75.6555V24.0261C75.6555 23.4667 75.5767 23.022 75.419 22.6921C75.2682 22.3622 75.0454 22.1255 74.7506 21.9821C74.4559 21.8315 74.096 21.7561 73.671 21.7561C73.2254 21.7561 72.8312 21.8494 72.4884 22.0359C72.1525 22.2223 71.8715 22.4769 71.6452 22.7997C71.419 23.1224 71.2476 23.4954 71.1311 23.9185C71.0214 24.3417 70.9666 24.7935 70.9666 25.2741Z" fill="#56CCF2"/>
<path d="M90.7918 22.4016V24.5425H82.8432V22.4016H90.7918ZM83.4807 15.8607V31.5246H80.8997V15.8607H83.4807ZM92.7763 15.8607V31.5246H90.2057V15.8607H92.7763Z" fill="#56CCF2"/>
<path d="M100.509 31.7398C99.6864 31.7398 98.9426 31.5999 98.2776 31.3202C97.6195 31.0333 97.0574 30.6352 96.5913 30.126C96.132 29.6168 95.7789 29.0179 95.5321 28.3294C95.2853 27.6409 95.162 26.8986 95.162 26.1025V25.6721C95.162 24.7613 95.2888 23.9365 95.5424 23.1977C95.7961 22.459 96.1491 21.8279 96.6015 21.3043C97.054 20.7736 97.5887 20.3683 98.2057 20.0886C98.8226 19.8089 99.491 19.6691 100.211 19.6691C101.006 19.6691 101.702 19.8089 102.298 20.0886C102.895 20.3683 103.388 20.7628 103.779 21.272C104.177 21.7741 104.471 22.373 104.663 23.0686C104.862 23.7643 104.961 24.5318 104.961 25.3709V26.479H96.365V24.6178H102.514V24.4134C102.5 23.9472 102.411 23.5097 102.247 23.1009C102.089 22.6921 101.846 22.3622 101.517 22.1112C101.188 21.8601 100.749 21.7346 100.201 21.7346C99.7892 21.7346 99.4225 21.8279 99.1003 22.0143C98.7849 22.1936 98.521 22.4554 98.3085 22.7997C98.096 23.144 97.9314 23.5599 97.8149 24.0476C97.7052 24.5282 97.6504 25.0697 97.6504 25.6721V26.1025C97.6504 26.6117 97.7155 27.085 97.8458 27.5225C97.9829 27.9529 98.1817 28.3294 98.4422 28.6522C98.7027 28.9749 99.018 29.2295 99.3882 29.416C99.7584 29.5953 100.18 29.6849 100.653 29.6849C101.249 29.6849 101.781 29.5594 102.247 29.3084C102.713 29.0574 103.117 28.7024 103.46 28.2433L104.766 29.5666C104.526 29.9324 104.214 30.2838 103.83 30.6209C103.446 30.9508 102.977 31.2198 102.422 31.4278C101.873 31.6358 101.236 31.7398 100.509 31.7398Z" fill="#56CCF2"/>
<path d="M109.548 15V31.5246H107.059V15H109.548Z" fill="#56CCF2"/>
<path d="M114.751 22.1219V36H112.272V19.8842H114.555L114.751 22.1219ZM122 25.5968V25.8227C122 26.6691 121.904 27.4544 121.712 28.1788C121.527 28.896 121.249 29.5236 120.879 30.0615C120.516 30.5922 120.067 31.0046 119.532 31.2987C118.997 31.5927 118.38 31.7398 117.681 31.7398C116.989 31.7398 116.382 31.6071 115.861 31.3417C115.347 31.0692 114.912 30.6855 114.555 30.1906C114.199 29.6957 113.911 29.1148 113.692 28.4477C113.479 27.7736 113.328 27.0348 113.239 26.2316V25.3601C113.328 24.5067 113.479 23.7321 113.692 23.0364C113.911 22.3407 114.199 21.7418 114.555 21.2398C114.912 20.7377 115.347 20.3504 115.861 20.0779C116.375 19.8053 116.975 19.6691 117.661 19.6691C118.36 19.6691 118.98 19.8125 119.522 20.0994C120.063 20.3791 120.519 20.7807 120.889 21.3043C121.26 21.8207 121.537 22.4447 121.722 23.1762C121.907 23.9006 122 24.7075 122 25.5968ZM119.522 25.8227V25.5968C119.522 25.0589 119.474 24.5605 119.378 24.1014C119.282 23.6352 119.131 23.2264 118.925 22.875C118.72 22.5236 118.456 22.251 118.134 22.0574C117.818 21.8566 117.438 21.7561 116.992 21.7561C116.554 21.7561 116.177 21.835 115.861 21.9928C115.546 22.1434 115.282 22.355 115.069 22.6276C114.857 22.9001 114.692 23.2193 114.576 23.585C114.459 23.9436 114.377 24.3345 114.329 24.7577V26.8448C114.411 27.3612 114.552 27.8345 114.751 28.2649C114.949 28.6952 115.231 29.0394 115.594 29.2976C115.964 29.5487 116.437 29.6742 117.013 29.6742C117.458 29.6742 117.839 29.5738 118.154 29.373C118.47 29.1721 118.727 28.896 118.925 28.5446C119.131 28.186 119.282 27.7736 119.378 27.3074C119.474 26.8412 119.522 26.3463 119.522 25.8227Z" fill="#56CCF2"/>
</svg>
