<svg width="122" height="24" viewBox="0 0 122 24" fill="none" xmlns="http://www.w3.org/2000/svg">
<path fill-rule="evenodd" clip-rule="evenodd" d="M9.89943 1.20292C7.60031 1.20292 5.39501 2.09974 3.76877 3.69663C2.14246 5.29358 1.22851 7.45987 1.22851 9.71902V18.0814C1.22823 18.1019 1.23209 18.1222 1.23991 18.1411C1.24774 18.16 1.25929 18.1771 1.2738 18.1913C1.28831 18.2056 1.30549 18.2167 1.32427 18.2242C1.34304 18.2317 1.36309 18.2354 1.38326 18.2352L1.39141 18.2351L9.89943 18.2351C11.0379 18.2351 12.1652 18.0149 13.2171 17.5871C14.269 17.1593 15.2248 16.5321 16.0301 15.7414C16.8353 14.9507 17.4742 14.0119 17.9101 12.9785C18.346 11.9452 18.5703 10.8376 18.5703 9.71902C18.5703 8.60043 18.346 7.49284 17.9101 6.4595C17.4742 5.42616 16.8353 4.48735 16.0301 3.69663C15.2248 2.90592 14.269 2.27878 13.2171 1.85094C12.1652 1.4231 11.0379 1.20292 9.89943 1.20292ZM9.89943 19.438H1.39481C1.21173 19.4398 1.03013 19.4058 0.860581 19.3382C0.689563 19.2699 0.534316 19.1687 0.403956 19.0407C0.273601 18.9127 0.17077 18.7605 0.101445 18.593C0.0327042 18.427 -0.00173549 18.2492 6.72849e-05 18.0701V9.71902C6.72849e-05 7.14191 1.04262 4.67002 2.89892 2.84723C4.75528 1.02437 7.2734 0 9.89943 0C11.1997 0 12.4871 0.251481 13.6883 0.740043C14.8895 1.2286 15.9808 1.94465 16.8999 2.84723C17.8191 3.7498 18.5481 4.82121 19.0455 6.00026C19.5428 7.1793 19.7988 8.44293 19.7988 9.71902C19.7988 10.9951 19.5428 12.2587 19.0455 13.4378C18.5481 14.6168 17.8191 15.6882 16.8999 16.5908C15.9808 17.4934 14.8895 18.2094 13.6883 18.698C12.4871 19.1866 11.1997 19.438 9.89943 19.438Z" fill="#00B37E"/>
<path fill-rule="evenodd" clip-rule="evenodd" d="M6.05566 8.52978C6.05566 8.1976 6.33066 7.92832 6.66989 7.92832H12.7254C13.0646 7.92832 13.3396 8.1976 13.3396 8.52978C13.3396 8.86196 13.0646 9.13124 12.7254 9.13124H6.66989C6.33066 9.13124 6.05566 8.86196 6.05566 8.52978Z" fill="#996DFF"/>
<path fill-rule="evenodd" clip-rule="evenodd" d="M6.05566 11.7011C6.05566 11.3689 6.33066 11.0996 6.66989 11.0996H12.7254C13.0646 11.0996 13.3396 11.3689 13.3396 11.7011C13.3396 12.0333 13.0646 12.3026 12.7254 12.3026H6.66989C6.33066 12.3026 6.05566 12.0333 6.05566 11.7011Z" fill="#996DFF"/>
<path d="M30.2783 1.19229V18.3802H28V1.19229H30.2783Z" fill="#996DFF"/>
<path d="M36.2752 8.33425V18.3802H34.0913V5.60732H36.1572L36.2752 8.33425ZM35.7558 11.5098L34.8468 11.4744C34.8547 10.6008 34.9846 9.79413 35.2364 9.05435C35.4882 8.30671 35.8424 7.65744 36.2988 7.10655C36.7553 6.55565 37.2983 6.13067 37.9279 5.83162C38.5654 5.52469 39.2697 5.37123 40.041 5.37123C40.6706 5.37123 41.2372 5.4578 41.7409 5.63093C42.2446 5.7962 42.6735 6.06378 43.0276 6.43367C43.3896 6.80355 43.6651 7.28362 43.854 7.87386C44.0428 8.45624 44.1373 9.16847 44.1373 10.0105V18.3802H41.9416V9.98694C41.9416 9.318 41.8432 8.78284 41.6465 8.38147C41.4497 7.97224 41.1625 7.67712 40.7847 7.49611C40.4069 7.30723 39.9426 7.21279 39.3917 7.21279C38.8487 7.21279 38.3529 7.3269 37.9043 7.55513C37.4636 7.78336 37.0819 8.09816 36.7592 8.49952C36.4444 8.90089 36.1965 9.36128 36.0155 9.8807C35.8424 10.3922 35.7558 10.9353 35.7558 11.5098Z" fill="#996DFF"/>
<path d="M50.7126 18.3802H48.5287V4.26157C48.5287 3.34078 48.694 2.5656 49.0245 1.936C49.3629 1.29854 49.8469 0.818473 50.4765 0.495806C51.1061 0.165269 51.8538 0 52.7194 0C52.9713 0 53.2231 0.0157399 53.475 0.0472196C53.7347 0.0786993 53.9865 0.125919 54.2305 0.188878L54.1124 1.97142C53.9472 1.93207 53.7583 1.90452 53.5458 1.88878C53.3412 1.87304 53.1365 1.86517 52.9319 1.86517C52.4676 1.86517 52.0662 1.95961 51.7278 2.14849C51.3973 2.3295 51.1455 2.59708 50.9723 2.95122C50.7992 3.30537 50.7126 3.74215 50.7126 4.26157V18.3802ZM53.4277 5.60732V7.28362H46.5101V5.60732H53.4277Z" fill="#996DFF"/>
<path d="M58.0435 7.61416V18.3802H55.8595V5.60732H57.9844L58.0435 7.61416ZM62.0335 5.53649L62.0217 7.56694C61.8407 7.52759 61.6676 7.50398 61.5023 7.49611C61.3449 7.48037 61.1639 7.4725 60.9593 7.4725C60.4556 7.4725 60.0109 7.5512 59.6253 7.7086C59.2397 7.86599 58.9131 8.08635 58.6455 8.36967C58.3779 8.65299 58.1654 8.99139 58.008 9.38489C57.8585 9.77052 57.7601 10.1955 57.7129 10.6598L57.0991 11.014C57.0991 10.2427 57.1738 9.51868 57.3234 8.84186C57.4808 8.16505 57.7208 7.56694 58.0435 7.04752C58.3661 6.52024 58.7754 6.111 59.2712 5.81981C59.7748 5.52076 60.3729 5.37123 61.0655 5.37123C61.2229 5.37123 61.4039 5.3909 61.6085 5.43025C61.8131 5.46173 61.9548 5.49715 62.0335 5.53649Z" fill="#996DFF"/>
<path d="M71.1115 16.1963V9.62099C71.1115 9.11731 71.0092 8.68053 70.8045 8.31064C70.6078 7.93289 70.3087 7.6417 69.9074 7.43708C69.506 7.23246 69.0102 7.13016 68.42 7.13016C67.8691 7.13016 67.3851 7.22459 66.9679 7.41347C66.5587 7.60235 66.236 7.85025 65.9999 8.15718C65.7717 8.46411 65.6576 8.79465 65.6576 9.14879H63.4737C63.4737 8.69234 63.5917 8.23982 63.8278 7.79123C64.0639 7.34264 64.4024 6.93734 64.8431 6.57533C65.2917 6.20544 65.8268 5.91425 66.4485 5.70176C67.0781 5.48141 67.7786 5.37123 68.5498 5.37123C69.4785 5.37123 70.2969 5.52862 71.0052 5.84342C71.7214 6.15822 72.2801 6.63435 72.6815 7.27181C73.0908 7.90141 73.2954 8.69234 73.2954 9.6446V15.5943C73.2954 16.0192 73.3308 16.4718 73.4016 16.9518C73.4803 17.4319 73.5944 17.8451 73.744 18.1913V18.3802H71.4656C71.3554 18.1284 71.2689 17.7939 71.2059 17.3768C71.1429 16.9518 71.1115 16.5583 71.1115 16.1963ZM71.4892 10.6362L71.5128 12.1708H69.3053C68.6836 12.1708 68.1288 12.222 67.6408 12.3243C67.1529 12.4187 66.7437 12.5643 66.4131 12.7611C66.0826 12.9578 65.8307 13.2057 65.6576 13.5048C65.4845 13.796 65.3979 14.1383 65.3979 14.5318C65.3979 14.9332 65.4884 15.2991 65.6694 15.6297C65.8504 15.9602 66.1219 16.2239 66.4839 16.4206C66.8538 16.6095 67.3064 16.7039 67.8415 16.7039C68.5105 16.7039 69.1007 16.5623 69.6122 16.2789C70.1238 15.9956 70.5291 15.6494 70.8281 15.2401C71.1351 14.8309 71.3003 14.4334 71.324 14.0478L72.2565 15.0985C72.2015 15.429 72.0519 15.7949 71.808 16.1963C71.564 16.5977 71.2374 16.9833 70.8281 17.3532C70.4268 17.7152 69.9467 18.0182 69.388 18.2622C68.8371 18.4983 68.2153 18.6163 67.5228 18.6163C66.6571 18.6163 65.8976 18.4471 65.2444 18.1087C64.5991 17.7703 64.0954 17.3178 63.7334 16.7511C63.3793 16.1766 63.2022 15.5352 63.2022 14.8269C63.2022 14.1423 63.336 13.5402 63.6036 13.0208C63.8711 12.4935 64.2568 12.0567 64.7604 11.7105C65.2641 11.3563 65.8701 11.0887 66.5784 10.9077C67.2867 10.7267 68.0776 10.6362 68.9512 10.6362H71.4892Z" fill="#996DFF"/>
<path d="M86.8096 8.58216V10.4355H77.5073V8.58216H86.8096ZM77.8615 1.19229V18.3802H75.5831V1.19229H77.8615ZM88.7928 1.19229V18.3802H86.5263V1.19229H88.7928Z" fill="#00B37E"/>
<path d="M97.8117 18.6163C96.9224 18.6163 96.1158 18.4668 95.3917 18.1677C94.6756 17.8608 94.0578 17.4319 93.5384 16.881C93.0268 16.3301 92.6333 15.6769 92.3579 14.9214C92.0824 14.1659 91.9447 13.3395 91.9447 12.4424V11.9465C91.9447 10.9077 92.0982 9.983 92.4051 9.1724C92.712 8.35393 93.1291 7.66137 93.6564 7.09474C94.1837 6.5281 94.7818 6.09919 95.4508 5.80801C96.1197 5.51682 96.8123 5.37123 97.5284 5.37123C98.4413 5.37123 99.2283 5.52862 99.8894 5.84342C100.558 6.15822 101.105 6.59893 101.53 7.16557C101.955 7.72433 102.27 8.38541 102.475 9.14879C102.679 9.9043 102.782 10.7306 102.782 11.6278V12.6076H93.2433V10.8251H100.598V10.6598C100.566 10.0932 100.448 9.54229 100.244 9.00713C100.047 8.47198 99.732 8.03126 99.2992 7.68498C98.8663 7.33871 98.2761 7.16557 97.5284 7.16557C97.0326 7.16557 96.5762 7.27181 96.1591 7.4843C95.742 7.68892 95.3839 7.99585 95.0848 8.40508C94.7858 8.81432 94.5536 9.31406 94.3883 9.9043C94.2231 10.4945 94.1404 11.1753 94.1404 11.9465V12.4424C94.1404 13.0483 94.2231 13.6189 94.3883 14.1541C94.5615 14.6813 94.8094 15.1457 95.132 15.547C95.4626 15.9484 95.86 16.2632 96.3243 16.4914C96.7965 16.7197 97.3317 16.8338 97.9298 16.8338C98.701 16.8338 99.3542 16.6764 99.8894 16.3616C100.425 16.0468 100.893 15.6257 101.294 15.0985L102.616 16.1491C102.341 16.5662 101.991 16.9636 101.566 17.3414C101.141 17.7191 100.617 18.0261 99.9956 18.2622C99.3818 18.4983 98.6538 18.6163 97.8117 18.6163Z" fill="#00B37E"/>
<path d="M107.704 0.247902V18.3802H105.509V0.247902H107.704Z" fill="#00B37E"/>
<path d="M113.394 8.06274V23.2911H111.198V5.60732H113.205L113.394 8.06274ZM122 11.8875V12.1354C122 13.0641 121.89 13.9258 121.669 14.7207C121.449 15.5077 121.126 16.1924 120.701 16.7748C120.284 17.3571 119.769 17.8096 119.155 18.1323C118.541 18.455 117.837 18.6163 117.042 18.6163C116.231 18.6163 115.515 18.4825 114.893 18.2149C114.272 17.9474 113.744 17.5578 113.312 17.0463C112.879 16.5347 112.532 15.9209 112.273 15.2047C112.021 14.4885 111.848 13.6819 111.753 12.7847V11.4625C111.848 10.5182 112.025 9.67214 112.285 8.9245C112.544 8.17685 112.887 7.53939 113.312 7.01211C113.744 6.47695 114.268 6.07165 114.882 5.7962C115.495 5.51288 116.204 5.37123 117.006 5.37123C117.809 5.37123 118.521 5.52862 119.143 5.84342C119.765 6.15035 120.288 6.59106 120.713 7.16557C121.138 7.74007 121.457 8.42869 121.669 9.23142C121.89 10.0263 122 10.9117 122 11.8875ZM119.804 12.1354V11.8875C119.804 11.2501 119.737 10.6519 119.604 10.0932C119.47 9.52655 119.261 9.03074 118.978 8.60577C118.702 8.17292 118.348 7.83451 117.915 7.59054C117.483 7.33871 116.967 7.21279 116.369 7.21279C115.818 7.21279 115.338 7.30723 114.929 7.49611C114.527 7.68498 114.185 7.94076 113.902 8.26342C113.618 8.57822 113.386 8.94024 113.205 9.34947C113.032 9.75084 112.902 10.1679 112.816 10.6008V13.6583C112.973 14.2092 113.194 14.7286 113.477 15.2165C113.76 15.6966 114.138 16.0861 114.61 16.3852C115.082 16.6764 115.676 16.822 116.393 16.822C116.983 16.822 117.491 16.7 117.915 16.456C118.348 16.2042 118.702 15.8618 118.978 15.429C119.261 14.9961 119.47 14.5003 119.604 13.9416C119.737 13.3749 119.804 12.7729 119.804 12.1354Z" fill="#00B37E"/>
</svg>
